name rise31.4854peak64.571fall78.6902.mot
datacolumns 19
datarows 26
range 8.51664100000000 8.55830600000000
endheader
time	ground_force1_vx	ground_force1_vy	ground_force1_vz	ground_force1_px	ground_force1_py	ground_force1_pz	ground_force2_vx	ground_force2_vy	ground_force2_vz	ground_force2_px	ground_force2_py	ground_force2_pz	ground_torque1_x	ground_torque1_y	ground_torque1_z	ground_torque2_x	ground_torque2_y	ground_torque2_z	
8.51664100000000	-6.41619100000000	46.40608100000000	-12.75584500000000	0.31606300000000	0.00000000000000	0.08360500000000	-40.01820000000000	787.37854800000002	-42.64046200000000	0.12111800000000	0.00000000000000	-0.07550300000000	0.00000000000000	-8.72739400000000	0.00000000000000	0.00000000000000	-14.87475400000000	0.00000000000000	
8.51830300000000	-6.80209500000000	53.03951200000000	-14.06352900000000	0.32121100000000	0.00000000000000	0.08444700000000	-40.73168700000000	785.25678500000004	-42.25965200000000	0.12032900000000	0.00000000000000	-0.07539400000000	0.00000000000000	-9.72636000000000	0.00000000000000	0.00000000000000	-14.83536400000000	0.00000000000000	
8.51997100000000	-7.04461700000000	59.60491600000000	-15.21988000000000	0.32589900000000	0.00000000000000	0.08523600000000	-41.47333900000000	783.06132900000000	-41.86896300000000	0.11954000000000	0.00000000000000	-0.07528500000000	0.00000000000000	-10.63684000000000	0.00000000000000	0.00000000000000	-14.80118300000000	0.00000000000000	
8.52163500000000	-7.13458500000000	66.03585200000001	-16.20560000000000	0.33018700000000	0.00000000000000	0.08597900000000	-42.24290400000000	780.78948700000001	-41.46833700000000	0.11875100000000	0.00000000000000	-0.07517400000000	0.00000000000000	-11.44327600000000	0.00000000000000	0.00000000000000	-14.77222400000000	0.00000000000000	
8.52330300000000	-7.06966600000000	72.29131300000000	-17.01152600000000	0.33412800000000	0.00000000000000	0.08668200000000	-43.04001200000000	778.43840699999998	-41.05770400000000	0.11796200000000	0.00000000000000	-0.07506200000000	0.00000000000000	-12.13711400000000	0.00000000000000	0.00000000000000	-14.74848000000000	0.00000000000000	
8.52496600000000	-6.85366700000000	78.35516500000000	-17.63791300000000	0.33776500000000	0.00000000000000	0.08734800000000	-43.86417800000000	776.00508600000001	-40.63698700000000	0.11717300000000	0.00000000000000	-0.07494900000000	0.00000000000000	-12.71647000000000	0.00000000000000	0.00000000000000	-14.72991600000000	0.00000000000000	
8.52663200000000	-6.49546600000000	84.23362700000000	-18.09306200000000	0.34113600000000	0.00000000000000	0.08798200000000	-44.71479600000000	773.48637599999995	-40.20610200000000	0.11638600000000	0.00000000000000	-0.07483500000000	0.00000000000000	-13.18528800000000	0.00000000000000	0.00000000000000	-14.71647700000000	0.00000000000000	
8.52829800000000	-6.00769900000000	89.95134100000000	-18.39153000000000	0.34427000000000	0.00000000000000	0.08858700000000	-45.59114000000000	770.87899400000003	-39.76496000000000	0.11560100000000	0.00000000000000	-0.07471900000000	0.00000000000000	-13.55217000000000	0.00000000000000	0.00000000000000	-14.70808100000000	0.00000000000000	
8.52997200000000	-5.40537100000000	95.54660800000001	-18.55213900000000	0.34719500000000	0.00000000000000	0.08916600000000	-46.49236400000000	768.17953199999999	-39.31346800000000	0.11481800000000	0.00000000000000	-0.07460200000000	0.00000000000000	-13.82902100000000	0.00000000000000	0.00000000000000	-14.70462400000000	0.00000000000000	
8.53163500000000	-4.70451200000000	101.06632600000000	-18.59597200000000	0.34993400000000	0.00000000000000	0.08972000000000	-47.41749800000000	765.38446599999997	-38.85153300000000	0.11403800000000	0.00000000000000	-0.07448400000000	0.00000000000000	-14.02965000000000	0.00000000000000	0.00000000000000	-14.70597500000000	0.00000000000000	
8.53330300000000	-3.92098500000000	106.56109300000000	-18.54454100000000	0.35250500000000	0.00000000000000	0.09025300000000	-48.36545300000000	762.49017200000003	-38.37906100000000	0.11326100000000	0.00000000000000	-0.07436500000000	0.00000000000000	-14.16846700000000	0.00000000000000	0.00000000000000	-14.71198200000000	0.00000000000000	
8.53497200000000	-3.06950300000000	112.08083999999999	-18.41822500000000	0.35492600000000	0.00000000000000	0.09076500000000	-49.33501700000000	759.49293200000000	-37.89596000000000	0.11248800000000	0.00000000000000	-0.07424400000000	0.00000000000000	-14.25935000000000	0.00000000000000	0.00000000000000	-14.72246700000000	0.00000000000000	
8.53663400000000	-2.16291300000000	117.67124099999999	-18.23507300000000	0.35721000000000	0.00000000000000	0.09125800000000	-50.32485600000000	756.38894900000003	-37.40214400000000	0.11172000000000	0.00000000000000	-0.07412200000000	0.00000000000000	-14.31474300000000	0.00000000000000	0.00000000000000	-14.73723200000000	0.00000000000000	
8.53830500000000	-1.21173600000000	123.37104900000000	-18.00997900000000	0.35937100000000	0.00000000000000	0.09173300000000	-51.33352000000000	753.17436399999997	-36.89753300000000	0.11095700000000	0.00000000000000	-0.07399900000000	0.00000000000000	-14.34502700000000	0.00000000000000	0.00000000000000	-14.75605100000000	0.00000000000000	
8.53997300000000	-0.22397600000000	129.21039300000001	-17.75424600000000	0.36141900000000	0.00000000000000	0.09219300000000	-52.35943900000000	749.84526500000004	-36.38205700000000	0.11020000000000	0.00000000000000	-0.07387400000000	0.00000000000000	-14.35815400000000	0.00000000000000	0.00000000000000	-14.77868100000000	0.00000000000000	
8.54163800000000	0.79486200000000	135.20998700000001	-17.47549200000000	0.36336300000000	0.00000000000000	0.09263700000000	-53.40092900000000	746.39770399999998	-35.85565400000000	0.10945000000000	0.00000000000000	-0.07374700000000	0.00000000000000	-14.35953200000000	0.00000000000000	0.00000000000000	-14.80485400000000	0.00000000000000	
8.54330500000000	1.84155300000000	141.38116600000001	-17.17785000000000	0.36521200000000	0.00000000000000	0.09306600000000	-54.45619000000000	742.82771300000002	-35.31828000000000	0.10870700000000	0.00000000000000	-0.07361900000000	0.00000000000000	-14.35211500000000	0.00000000000000	0.00000000000000	-14.83428000000000	0.00000000000000	
8.54497200000000	2.91481800000000	147.72656499999999	-16.86238200000000	0.36697300000000	0.00000000000000	0.09348200000000	-55.52331400000000	739.13131899999996	-34.76990200000000	0.10797200000000	0.00000000000000	-0.07349000000000	0.00000000000000	-14.33667100000000	0.00000000000000	0.00000000000000	-14.86665200000000	0.00000000000000	
8.54664000000000	4.01489700000000	154.24130400000001	-16.52765600000000	0.36865100000000	0.00000000000000	0.09388600000000	-56.60028700000000	735.30456100000004	-34.21050900000000	0.10724500000000	0.00000000000000	-0.07335900000000	0.00000000000000	-14.31215600000000	0.00000000000000	0.00000000000000	-14.90164000000000	0.00000000000000	
8.54830200000000	5.14308200000000	160.91446800000000	-16.17038900000000	0.37025200000000	0.00000000000000	0.09427700000000	-57.68499000000000	731.34350600000005	-33.64010700000000	0.10652700000000	0.00000000000000	-0.07322600000000	0.00000000000000	-14.27616000000000	0.00000000000000	0.00000000000000	-14.93889800000000	0.00000000000000	
8.54996900000000	6.30126700000000	167.73074399999999	-15.78612000000000	0.37177900000000	0.00000000000000	0.09465600000000	-58.77520800000000	727.24427100000003	-33.05872600000000	0.10581900000000	0.00000000000000	-0.07309100000000	0.00000000000000	-14.22537100000000	0.00000000000000	0.00000000000000	-14.97806000000000	0.00000000000000	
8.55163600000000	7.49152800000000	174.67204400000000	-15.36984000000000	0.37323700000000	0.00000000000000	0.09502500000000	-59.86863000000000	723.00303499999995	-32.46642000000000	0.10512100000000	0.00000000000000	-0.07295400000000	0.00000000000000	-14.15602600000000	0.00000000000000	0.00000000000000	-15.01874600000000	0.00000000000000	
8.55329900000000	8.71576300000000	181.71900900000000	-14.91654800000000	0.37462900000000	0.00000000000000	0.09538300000000	-60.96286000000000	718.61606400000005	-31.86326600000000	0.10443400000000	0.00000000000000	-0.07281600000000	0.00000000000000	-14.06430800000000	0.00000000000000	0.00000000000000	-15.06055900000000	0.00000000000000	
8.55497100000000	9.97541600000000	188.85230700000000	-14.42170500000000	0.37595700000000	0.00000000000000	0.09573000000000	-62.05541700000000	714.07972700000005	-31.24937300000000	0.10375800000000	0.00000000000000	-0.07267500000000	0.00000000000000	-13.94667800000000	0.00000000000000	0.00000000000000	-15.10308900000000	0.00000000000000	
8.55663600000000	11.27127700000000	196.05366500000000	-13.88157200000000	0.37722300000000	0.00000000000000	0.09606800000000	-63.14374500000000	709.39051900000004	-30.62487700000000	0.10309400000000	0.00000000000000	-0.07253300000000	0.00000000000000	-13.80012900000000	0.00000000000000	0.00000000000000	-15.14591300000000	0.00000000000000	
8.55830600000000	12.60336900000000	203.30661900000001	-13.29343100000000	0.37842900000000	0.00000000000000	0.09639700000000	-64.22522100000000	704.54507999999998	-29.98994300000000	0.10244100000000	0.00000000000000	-0.07238800000000	0.00000000000000	-13.62235100000000	0.00000000000000	0.00000000000000	-15.18859700000000	0.00000000000000	
